<?xml version="1.0" encoding="utf-8"?>
<!-- Generator: Adobe Illustrator 24.2.3, SVG Export Plug-In . SVG Version: 6.00 Build 0)  -->
<svg version="1.1" id="c-0" xmlns:svgjs="http://svgjs.dev/svgjs"
	 xmlns="http://www.w3.org/2000/svg" xmlns:xlink="http://www.w3.org/1999/xlink" x="0px" y="0px" viewBox="0 0 357.6 356.4"
	 style="enable-background:new 0 0 357.6 356.4;" xml:space="preserve">
<style type="text/css">
	.st0{fill:#FFFFFF;stroke:#FFFFFF;stroke-miterlimit:10;}
	.st1{display:none;fill:#FFFFFF;stroke:#FFFFFF;stroke-miterlimit:10;}
</style>
<g transform="matrix(1,0,0,1,-0.6060606060606233,-0.04233074481024346)">
	<g id="tight-bounds" transform="matrix(1,0,0,1,0.2400000000000091,0.016788397375165687)">
		<g>
			<g>
				<g id="icon-0">
					<g>
						<path class="st0" d="M3,178.6C3,81.2,82,2.2,179.4,2.2s176.5,79,176.5,176.5s-79,176.5-176.5,176.5S3,276.1,3,178.6z
							 M179.4,347.9c93.5,0,169.3-75.8,169.3-169.3c0-93.5-75.8-169.3-169.3-169.3C85.9,9.4,10.2,85.1,10.2,178.6
							C10.2,272.1,85.9,347.9,179.4,347.9L179.4,347.9z"/>
					</g>
					<g transform="matrix(1,0,0,1,45.94294856782602,48.12659610640573)">
						<g>
							<polygon class="st0" points="142,174.1 100.6,182.3 108.8,140.9 192.6,57.2 192.6,27.8 27.5,27.8 27.5,233.1 192.6,233.1 
								192.6,123.4 							"/>
							<polygon class="st0" points="217.3,43.4 116,144.8 110.5,172.4 138.1,166.9 239.5,65.6 							"/>
						</g>
					</g>
				</g>
			</g>
		</g>
		<rect x="3" y="2.2" class="st1" width="997.3" height="352.9"/>
	</g>
</g>
</svg>
