<svg xmlns="http://www.w3.org/2000/svg" version="1.1" xmlns:xlink="http://www.w3.org/1999/xlink"
    xmlns:svgjs="http://svgjs.dev/svgjs" width="1000" height="353" viewBox="0 0 1000 353">
    <g transform="matrix(1,0,0,1,-0.6060606060606233,-0.04233074481024346)">
        <svg viewBox="0 0 396 140" data-background-color="#ffffff"
            preserveAspectRatio="xMidYMid meet" height="353" width="1000"
            xmlns="http://www.w3.org/2000/svg" xmlns:xlink="http://www.w3.org/1999/xlink">
            <g id="tight-bounds" transform="matrix(1,0,0,1,0.2400000000000091,0.016788397375165687)">
                <svg viewBox="0 0 395.52 139.96618670409177" height="139.96618670409177"
                    width="395.52">
                    <g>
                        <svg viewBox="0 0 650.1704519987105 230.0816112306211"
                            height="139.96618670409177" width="395.52">
                            <g transform="matrix(1,0,0,1,254.65045199871054,66.80157543526663)">
                                <svg viewBox="0 0 395.52 96.47846036008784"
                                    height="96.47846036008784" width="395.52">
                                    <g>
                                        <svg viewBox="0 0 395.52 96.47846036008784"
                                            height="96.47846036008784" width="395.52">
                                            <g>
                                                <svg viewBox="0 0 395.52 52.03587143142344"
                                                    height="52.03587143142344" width="395.52">
                                                    <g transform="matrix(1,0,0,1,0,0)">
                                                        <svg width="395.52"
                                                            viewBox="2.6500000953674316 -32.5 250.4300079345703 32.95000076293945"
                                                            height="52.03587143142344"
                                                            data-palette-color="#010c80">
                                                            <path
                                                                d="M33.8-32.1L36.85 0 32.25 0 31.6-9.75 30.1-24.25 29.75-24.25 21.5-3.55 17.4-3.55 9.75-24.25 9.3-24.25 7.8-10.2 7 0 2.65 0 6-32.1 11.9-32.1 13.4-27.3 19.55-10.25 19.95-10.25 26.45-27.45 27.95-32.1 33.8-32.1ZM49.2-32.1L48.9-10.1 49.15 0 43.9 0 44.25-9.65 43.9-32.1 49.2-32.1ZM69.2-32.45Q74.09-32.45 77.84-30.25L77.84-30.25 76.9-25.7 76.4-25.55Q73.05-28.15 69-28.15L69-28.15Q64.59-28.15 62.27-25.18 59.95-22.2 59.95-16.3L59.95-16.3Q59.95-10.25 62.3-7.1 64.65-3.95 69-3.95L69-3.95Q71.09-3.95 73.17-4.67 75.25-5.4 77-6.7L77-6.7 77.5-6.4 77.09-1.7Q72.8 0.4 68.59 0.4L68.59 0.4Q61.85 0.4 58.2-3.8 54.55-8 54.55-15.75L54.55-15.75Q54.55-23.75 58.37-28.1 62.2-32.45 69.2-32.45L69.2-32.45ZM97.79-12.85Q101.19-7.4 105.84-1.2L105.84-1.2 105.79-0.6Q103.39 0.2 100.84 0.45L100.84 0.45 100.24 0.05Q96.09-6.75 93.54-11.45L93.54-11.45 88.09-11.45 88.09-10.1 88.34 0 83.09 0 83.44-9.65 83.09-32.1 93.99-32.15Q98.84-32.15 101.49-29.73 104.14-27.3 104.14-22.8L104.14-22.8Q104.14-19.6 102.47-17.03 100.79-14.45 97.79-12.85L97.79-12.85ZM88.34-27.95L88.19-15.65 93.69-15.5Q98.74-17.05 98.74-22.4L98.74-22.4Q98.74-25.2 97.22-26.6 95.69-28 92.59-28.1L92.59-28.1 88.34-27.95ZM123.19-32.5Q129.84-32.5 133.44-28.4 137.04-24.3 137.04-16.7L137.04-16.7Q137.04-8.5 133.19-4.03 129.34 0.45 122.24 0.45L122.24 0.45Q115.64 0.45 112.07-3.78 108.49-8 108.49-15.75L108.49-15.75Q108.49-23.8 112.32-28.15 116.14-32.5 123.19-32.5L123.19-32.5ZM122.79-28.3Q118.24-28.3 116.02-25.38 113.79-22.45 113.79-16.35L113.79-16.35Q113.79-9.7 115.97-6.63 118.14-3.55 122.69-3.55L122.69-3.55Q127.29-3.55 129.49-6.5 131.69-9.45 131.69-15.7L131.69-15.7Q131.69-22.25 129.52-25.28 127.34-28.3 122.79-28.3L122.79-28.3ZM166.04-16.7Q169.39-16 171.01-14.08 172.64-12.15 172.64-9L172.64-9Q172.64 0.2 158.89 0.2L158.89 0.2Q154.14 0.2 151.09 0L151.09 0 151.04 0 151.39-9.65 151.04-32.1 161.04-32.15Q165.69-32.15 168.26-30.13 170.84-28.1 170.84-24.25L170.84-24.25Q170.84-21.55 169.59-19.63 168.34-17.7 166.04-16.7L166.04-16.7ZM165.54-23.65Q165.54-26.05 164.19-27.1 162.84-28.15 159.64-28.15L159.64-28.15 156.24-28.15 156.09-18.3 161.24-18.15Q163.44-18.7 164.49-20.03 165.54-21.35 165.54-23.65L165.54-23.65ZM159.74-3.8Q163.44-3.8 165.44-5.2 167.44-6.6 167.44-9.3L167.44-9.3Q167.44-13.6 161.89-14.35L161.89-14.35 156.04-14.3 155.99-10.1 156.14-3.95Q158.09-3.8 159.74-3.8L159.74-3.8ZM195.13-4.3L195.48-3.85 195.08 0 178.58 0 178.93-9.65 178.58-32.1 183.88-32.1 183.58-10.1 183.68-4.3 195.13-4.3ZM210.33-32.5Q216.98-32.5 220.58-28.4 224.18-24.3 224.18-16.7L224.18-16.7Q224.18-8.5 220.33-4.03 216.48 0.45 209.38 0.45L209.38 0.45Q202.78 0.45 199.21-3.78 195.63-8 195.63-15.75L195.63-15.75Q195.63-23.8 199.46-28.15 203.28-32.5 210.33-32.5L210.33-32.5ZM209.93-28.3Q205.38-28.3 203.16-25.38 200.93-22.45 200.93-16.35L200.93-16.35Q200.93-9.7 203.11-6.63 205.28-3.55 209.83-3.55L209.83-3.55Q214.43-3.55 216.63-6.5 218.83-9.45 218.83-15.7L218.83-15.7Q218.83-22.25 216.66-25.28 214.48-28.3 209.93-28.3L209.93-28.3ZM243.68-32.45Q248.73-32.45 253.08-30.3L253.08-30.3 252.03-25.5 251.48-25.45Q249.03-26.9 247.03-27.53 245.03-28.15 242.83-28.15L242.83-28.15Q237.83-28.15 235.38-25.13 232.93-22.1 232.93-15.6L232.93-15.6Q232.93-9.4 235.23-6.63 237.53-3.85 242.53-3.85L242.53-3.85Q243.78-3.85 245-4.08 246.23-4.3 248.08-4.85L248.08-4.85 248.23-8.1 248.08-13.05 252.93-13.4 252.83-8.9 252.98-1.55Q246.78 0.4 242.23 0.4L242.23 0.4Q234.88 0.4 231.23-3.68 227.58-7.75 227.58-15.35L227.58-15.35Q227.58-23.65 231.75-28.05 235.93-32.45 243.68-32.45L243.68-32.45Z"
                                                                opacity="1"
                                                                transform="matrix(1,0,0,1,0,0)"
                                                                fill="#fff"
                                                                class="undefined-text-0"
                                                                data-fill-palette-color="primary"
                                                                id="text-0"></path>
                                                        </svg>
                                                    </g>
                                                </svg>
                                            </g>
                                        </svg>
                                    </g>
                                </svg>
                            </g>
                            <g>
                                <svg viewBox="0 0 230.0816112306211 230.0816112306211"
                                    height="230.0816112306211" width="230.0816112306211">
                                    <g>
                                        <svg></svg>
                                    </g>
                                    <g id="icon-0">
                                        <svg viewBox="0 0 230.0816112306211 230.0816112306211"
                                            height="230.0816112306211" width="230.0816112306211">
                                            <g>
                                                <path
                                                    d="M0 115.041c0-63.535 51.506-115.041 115.041-115.041 63.535 0 115.041 51.506 115.041 115.041 0 63.535-51.506 115.041-115.041 115.041-63.535 0-115.041-51.506-115.041-115.041zM115.041 225.389c60.944 0 110.348-49.405 110.348-110.348 0-60.944-49.405-110.348-110.348-110.348-60.944 0-110.348 49.405-110.348 110.348 0 60.944 49.405 110.348 110.348 110.348z"
                                                    data-fill-palette-color="accent" fill="#fff"
                                                    stroke="transparent"></path>
                                            </g>
                                            <g
                                                transform="matrix(1,0,0,1,45.94294856782602,48.12659610640573)">
                                                <svg
                                                    viewBox="0 0 138.19571409496905 133.82841901780964"
                                                    height="133.82841901780964"
                                                    width="138.19571409496905">
                                                    <g>
                                                        <svg xmlns="http://www.w3.org/2000/svg"
                                                            xmlns:xlink="http://www.w3.org/1999/xlink"
                                                            version="1.1" x="0" y="0"
                                                            viewBox="0.5419999957084656 2.1050000190734863 98.91699981689453 95.79100036621094"
                                                            enable-background="new 0 0 100 100"
                                                            xml:space="preserve"
                                                            width="138.19571409496905"
                                                            height="133.82841901780964"
                                                            class="icon-c-0"
                                                            data-fill-palette-color="accent"
                                                            id="c-0"><polygon fill="#fff" points="53.957,70.336 34.651,74.177 38.492,54.872 77.578,15.786 77.578,2.105 0.542,2.105 0.542,97.896   77.578,97.896 77.578,46.715 " data-fill-palette-color="accent"></polygon><polygon fill="#fff" points="89.127,9.37 41.838,56.66 39.271,69.557 52.17,66.989 99.459,19.701 " data-fill-palette-color="accent"></polygon></svg>
                                                    </g>
                                                </svg>
                                            </g>
                                        </svg>
                                    </g>
                                </svg>
                            </g>
                        </svg>
                    </g>
                    <defs></defs>
                </svg>
                <rect width="395.52" height="139.96618670409177" fill="none" stroke="none"
                    visibility="hidden"></rect>
            </g>
        </svg>
    </g>
</svg>